<mxfile host="app.diagrams.net" agent="Mozilla/5.0 (Macintosh; Intel Mac OS X 10_15_7) AppleWebKit/537.36 (KHTML, like Gecko) Chrome/129.0.0.0 Safari/537.36" version="24.7.17">
  <diagram name="Page-1" id="2a9Zqep7s0NdOR2e9DRu">
    <mxGraphModel dx="954" dy="639" grid="1" gridSize="10" guides="1" tooltips="1" connect="1" arrows="1" fold="1" page="1" pageScale="1" pageWidth="850" pageHeight="1100" math="0" shadow="0">
      <root>
        <mxCell id="0" />
        <mxCell id="1" parent="0" />
        <mxCell id="ROPUSDtS1nkZ0CYCW_UK-1" value="Movies&amp;nbsp;&lt;br&gt;*Genre&lt;br&gt;*release dates&lt;div&gt;*Award winning&amp;nbsp;&lt;/div&gt;&lt;div&gt;*Ratings&lt;/div&gt;" style="whiteSpace=wrap;html=1;aspect=fixed;" vertex="1" parent="1">
          <mxGeometry x="650" y="110" width="140" height="140" as="geometry" />
        </mxCell>
        <mxCell id="ROPUSDtS1nkZ0CYCW_UK-2" value="User&lt;div&gt;*usernames&lt;/div&gt;&lt;div&gt;*emails&lt;/div&gt;&lt;div&gt;*age&lt;/div&gt;&lt;div&gt;*gender&lt;/div&gt;&lt;div&gt;*watchlist&lt;/div&gt;&lt;div&gt;&lt;br&gt;&lt;/div&gt;&lt;div&gt;&lt;br&gt;&lt;/div&gt;" style="whiteSpace=wrap;html=1;aspect=fixed;" vertex="1" parent="1">
          <mxGeometry x="90" y="110" width="140" height="140" as="geometry" />
        </mxCell>
        <mxCell id="ROPUSDtS1nkZ0CYCW_UK-13" value="&lt;font style=&quot;font-size: 28px;&quot;&gt;RateFlix&lt;/font&gt;" style="rounded=1;whiteSpace=wrap;html=1;" vertex="1" parent="1">
          <mxGeometry x="335" y="20" width="215" height="60" as="geometry" />
        </mxCell>
        <mxCell id="ROPUSDtS1nkZ0CYCW_UK-18" value="Shows&amp;nbsp;&lt;div&gt;*Genre&lt;/div&gt;&lt;div&gt;*Release dates&lt;/div&gt;&lt;div&gt;*Award Winning&lt;/div&gt;&lt;div&gt;*Ratings&amp;nbsp;&lt;/div&gt;" style="whiteSpace=wrap;html=1;aspect=fixed;" vertex="1" parent="1">
          <mxGeometry x="660" y="360" width="140" height="140" as="geometry" />
        </mxCell>
        <mxCell id="ROPUSDtS1nkZ0CYCW_UK-22" value="&lt;div&gt;C*top ten&amp;nbsp;&lt;br&gt;*recommend&lt;/div&gt;&lt;div&gt;*Movies of the week&amp;nbsp;&lt;/div&gt;&lt;div&gt;*&amp;nbsp;&lt;/div&gt;" style="whiteSpace=wrap;html=1;aspect=fixed;" vertex="1" parent="1">
          <mxGeometry x="80" y="370" width="140" height="140" as="geometry" />
        </mxCell>
        <mxCell id="ROPUSDtS1nkZ0CYCW_UK-24" value="" style="shape=flexArrow;endArrow=classic;html=1;rounded=0;exitX=0.5;exitY=1;exitDx=0;exitDy=0;entryX=0.443;entryY=-0.011;entryDx=0;entryDy=0;entryPerimeter=0;" edge="1" parent="1" source="ROPUSDtS1nkZ0CYCW_UK-1" target="ROPUSDtS1nkZ0CYCW_UK-18">
          <mxGeometry width="50" height="50" relative="1" as="geometry">
            <mxPoint x="450" y="270" as="sourcePoint" />
            <mxPoint x="500" y="220" as="targetPoint" />
          </mxGeometry>
        </mxCell>
        <mxCell id="ROPUSDtS1nkZ0CYCW_UK-25" value="" style="shape=flexArrow;endArrow=classic;html=1;rounded=0;exitX=0.5;exitY=1;exitDx=0;exitDy=0;entryX=0.5;entryY=0;entryDx=0;entryDy=0;" edge="1" parent="1" source="ROPUSDtS1nkZ0CYCW_UK-2" target="ROPUSDtS1nkZ0CYCW_UK-22">
          <mxGeometry width="50" height="50" relative="1" as="geometry">
            <mxPoint x="450" y="270" as="sourcePoint" />
            <mxPoint x="500" y="220" as="targetPoint" />
            <Array as="points" />
          </mxGeometry>
        </mxCell>
        <mxCell id="ROPUSDtS1nkZ0CYCW_UK-27" value="HOME PAGE&lt;div&gt;Favorites&amp;nbsp;&lt;/div&gt;&lt;div&gt;Sign in&lt;/div&gt;&lt;div&gt;Movies&lt;/div&gt;&lt;div&gt;Shows&lt;/div&gt;&lt;div&gt;Review / rating&amp;nbsp;&lt;/div&gt;&lt;div&gt;&lt;br&gt;&lt;/div&gt;" style="whiteSpace=wrap;html=1;aspect=fixed;" vertex="1" parent="1">
          <mxGeometry x="307.5" y="150" width="270" height="270" as="geometry" />
        </mxCell>
      </root>
    </mxGraphModel>
  </diagram>
</mxfile>
